<svg width="1080" height="1080" viewBox="0 0 1080 1080" fill="none" xmlns="http://www.w3.org/2000/svg">
<g clip-path="url(#clip0_1413_166)">
<path d="M875.323 786.658C994.994 750.6 1077.74 638.594 1077.74 510.387C1077.74 441.058 1053.17 374.168 1008.23 321.387C965.555 271.045 906.503 237.426 841.529 226.277C813.484 94.9355 698.168 0 565.955 0H0V353.264H706.006C681.097 408.484 626.052 444.89 566.129 444.89H0V1080H128.206V1058.23C131.516 1002.48 154.161 949.529 192.31 908.768C260.594 835.432 377.129 798.155 538.258 798.155H724.471L920.439 1080H1080L875.323 786.658ZM128.206 222.445V130.819H565.955C626.052 130.819 680.923 167.226 705.832 222.445H128.206ZM949.703 510.387C949.703 596.961 880.723 667.51 795.716 667.51H538.084C359.71 667.51 221.923 708.968 128.206 790.665V575.884H565.955C630.581 575.71 693.116 553.239 742.935 512.129C790.316 472.935 824.11 419.632 839.264 359.884C904.587 379.394 949.703 440.361 949.703 510.387Z" fill="#72E302"/>
</g>
<defs>
<clipPath id="clip0_1413_166">
<rect width="1080" height="1080" fill="white"/>
</clipPath>
</defs>
</svg>
