<svg width="98" height="161" viewBox="0 0 98 161" fill="none" xmlns="http://www.w3.org/2000/svg">
<path fill-rule="evenodd" clip-rule="evenodd" d="M82.5133 18.703H15.1274C11.3299 18.703 8.25133 21.7815 8.25133 25.5791V144.948C8.25133 148.746 11.3299 151.824 15.1274 151.824H82.5133C86.3109 151.824 89.3894 148.746 89.3894 144.948V25.5791C89.3894 21.7815 86.3109 18.703 82.5133 18.703ZM15.1274 10.4517C6.77278 10.4517 0 17.2244 0 25.5791V144.948C0 153.303 6.77278 160.076 15.1274 160.076H82.5133C90.8679 160.076 97.6407 153.303 97.6407 144.948V25.5791C97.6407 17.2244 90.8679 10.4517 82.5133 10.4517H15.1274Z" fill="url(#paint0_linear_114_563)"/>
<path d="M11.8262 81.9633C11.8262 78.9252 14.289 76.4624 17.3271 76.4624H80.3122C83.3503 76.4624 85.8131 78.9252 85.8131 81.9633V142.748C85.8131 145.786 83.3503 148.249 80.3122 148.249H17.3271C14.289 148.249 11.8262 145.786 11.8262 142.748V81.9633Z" fill="url(#paint1_linear_114_563)"/>
<path d="M44.6934 40.2674L15.6412 102.925C14.8623 104.605 16.0604 106.167 17.878 106.167H45.3551C46.7222 106.167 47.7375 106.922 47.7375 108.32V145.6C47.7375 148.283 51.3749 149.297 52.5283 146.887L81.5263 86.3011C82.0939 85.0945 82.6413 81.6882 79.1312 81.6882H51.7084C50.3413 81.6882 49.7585 81.4265 49.7585 80.0281V41.2567C49.7585 38.5563 45.8247 37.8275 44.6934 40.2674Z" fill="url(#paint2_linear_114_563)"/>
<path d="M36.3057 28.7423C36.3057 26.8435 37.8449 25.3042 39.7437 25.3042H57.8966C59.7954 25.3042 61.3347 26.8435 61.3347 28.7423C61.3347 30.641 59.7954 32.1803 57.8966 32.1803H39.7437C37.8449 32.1803 36.3057 30.641 36.3057 28.7423Z" fill="#009EF0"/>
<path d="M34.6553 4.12566C34.6553 1.84712 36.5024 0 38.7809 0H58.8592C61.1377 0 62.9848 1.84712 62.9848 4.12566V7.97629C62.9848 8.12819 62.8617 8.25133 62.7098 8.25133H34.9303C34.7784 8.25133 34.6553 8.12819 34.6553 7.97629V4.12566Z" fill="#009EF0"/>
<defs>
<linearGradient id="paint0_linear_114_563" x1="48.8204" y1="10.4517" x2="48.8204" y2="160.076" gradientUnits="userSpaceOnUse">
<stop stop-color="#009EF0"/>
<stop offset="1" stop-color="#44BFFF"/>
</linearGradient>
<linearGradient id="paint1_linear_114_563" x1="48.8196" y1="76.4624" x2="48.8196" y2="148.249" gradientUnits="userSpaceOnUse">
<stop stop-color="#009EF0"/>
<stop offset="1" stop-color="#44BFFF"/>
</linearGradient>
<linearGradient id="paint2_linear_114_563" x1="48.748" y1="38.7812" x2="48.748" y2="148.249" gradientUnits="userSpaceOnUse">
<stop offset="0.247917" stop-color="#FEDD2C"/>
<stop offset="1" stop-color="#FDB400"/>
</linearGradient>
</defs>
</svg>
