<svg width="38" height="61" viewBox="0 0 38 61" fill="none" xmlns="http://www.w3.org/2000/svg">
<path d="M0 0V60.4667H37.5672V0H0ZM31.5233 36.7205C33.6946 32.9267 31.4094 29.642 31.4094 29.642C31.4094 29.642 31.9016 33.2834 30.5743 34.4765C29.5071 35.4357 26.0381 36.6702 24.662 37.7804C22.6857 39.3805 22.362 42.1708 22.7966 44.4933C23.1384 46.3435 23.9665 48.069 25.1955 49.4921C23.75 46.206 24.3708 45.0691 24.8645 44.4593C25.1277 44.1367 25.4531 43.8705 25.8214 43.6767C26.1896 43.4829 26.5931 43.3654 27.0077 43.3313C25.6774 43.1996 24.4476 43.9515 23.8061 45.0647C23.4396 43.4187 23.3864 41.6231 23.9953 40.1014C24.3922 39.1317 25.1479 38.3531 26.1046 37.9284C27.1259 37.4133 28.1562 36.9707 29.1864 36.4482C29.8826 36.0973 30.6364 35.6518 31.2202 35.073L31.1848 35.1929C30.8803 36.1654 30.3349 37.0935 29.7761 37.9477C32.0539 38.1297 34.7159 40.5085 35.3604 41.5846C36.4423 43.2573 36.7601 45.303 36.531 47.2614C36.0876 51.9493 33.0013 56.2332 28.7164 58.1634C26.5835 59.1655 24.1934 59.5104 21.8536 59.3476C16.089 59.0516 10.5299 56.3619 6.66915 52.0751C3.13635 48.1679 1.10118 43.1328 0.925285 37.8648C5.60197 42.7318 11.0487 43.2499 11.0487 43.2499C11.0487 43.2499 6.79922 42.0805 3.70557 36.3031C1.58008 32.3434 1.59634 29.0958 2.9754 24.8948C3.17457 24.2956 3.42172 23.7134 3.71444 23.154C3.92667 24.2013 4.25076 25.2226 4.68112 26.2004C5.50441 28.0936 7.54713 30.7892 10.2713 31.889C9.90765 31.1252 9.42135 30.1645 9.1213 29.3726C7.12883 24.316 5.99957 17.9317 9.63863 13.3504C10.6045 12.1117 11.7383 11.0141 13.0072 10.0894L12.9703 10.1589L12.7544 10.6267L12.648 10.8606C9.11982 18.8095 15.3086 27.5001 15.3086 27.5015C15.1238 26.6874 13.5186 22.0394 14.3094 17.1916C15.3441 10.8976 19.6128 5.41623 25.3123 2.7207C28.8597 1.11611 32.8343 0.858544 36.6936 0.968083V42.267C35.4964 38.8713 31.8159 37.5731 31.1877 37.3822C31.2971 37.1646 31.3991 36.9366 31.5233 36.7205ZM28.8982 0.888149C27.5682 1.15432 26.2704 1.56223 25.027 2.10491C22.8024 3.15309 20.7717 4.57211 19.0216 6.30142C15.0558 10.116 13.0072 15.6818 13.2289 21.1676C12.7554 19.6956 12.4733 18.1688 12.3894 16.6247C12.26 14.5003 12.6602 12.377 13.5541 10.4461C13.6783 10.2019 13.8734 9.81257 14.0138 9.58461C14.2 9.26636 14.7691 8.32344 14.9716 7.97262C11.9267 9.87918 8.88628 12.2653 7.44515 15.6818C5.62857 20.0781 6.6322 25.4307 8.37634 29.8314C8.07802 29.5947 7.7942 29.3401 7.52644 29.0691C6.47984 27.9819 5.65495 26.7008 5.09794 25.2974L4.8777 24.6891C4.72989 24.3249 4.60573 23.8246 4.49192 23.4427C4.33672 22.7825 4.18004 22.0291 4.03962 21.357C3.35527 22.3843 2.71821 23.493 2.32947 24.6698C0.826253 29.0558 0.876508 32.5063 2.98574 36.6761C3.78244 38.2082 4.74172 39.6855 5.94193 40.9407C4.39437 40.1192 2.99609 38.9986 1.69389 37.8322C1.518 37.6753 1.18247 37.3556 0.886855 37.0684V0.888149H28.8982ZM0.886855 41.9295C1.12937 43.1065 1.46649 44.2619 1.89491 45.3844C4.53183 52.5266 10.994 57.9488 18.3283 59.5785H0.886855V41.9295ZM27.0254 59.5785C31.5233 58.3262 35.1712 54.7722 36.6803 50.401V59.5785H27.0254Z" fill="#E33419"/>
</svg>
