<svg width="32" height="32" viewBox="0 0 32 32" fill="none" xmlns="http://www.w3.org/2000/svg">
<path d="M26.5846 6.27494C26.2093 5.95694 25.6199 5.91144 25.0104 6.15594H25.0094C24.3685 6.41294 6.86576 13.915 6.15324 14.2215C6.02365 14.2665 4.89183 14.6885 5.00841 15.6285C5.11249 16.476 6.02215 16.827 6.13323 16.8675L10.583 18.39C10.8782 19.372 11.9665 22.995 12.2071 23.769C12.3572 24.2515 12.6019 24.8855 13.0307 25.016C13.407 25.161 13.7813 25.0285 14.0234 24.8385L16.7439 22.317L21.1356 25.7395L21.2402 25.802C21.5384 25.934 21.8241 26 22.0968 26C22.3075 26 22.5096 25.9605 22.7027 25.8815C23.3607 25.6115 23.6239 24.985 23.6514 24.914L26.9318 7.87545C27.132 6.96544 26.8538 6.50244 26.5846 6.27494ZM14.5073 18.999L13.0062 22.999L11.5051 17.999L23.0135 9.49895L14.5073 18.999Z" fill="currentColor"/>
</svg>
