<svg width="32" height="32" viewBox="0 0 32 32" fill="none" xmlns="http://www.w3.org/2000/svg">
<path fill-rule="evenodd" clip-rule="evenodd" d="M23.5739 3.04469C22.2546 3.25043 21.1392 3.82599 20.1588 4.80691C18.3021 6.66475 17.883 9.25884 19.0494 11.6736C19.386 12.3705 19.5589 12.6056 20.2021 13.2405C20.8361 13.8663 21.0909 14.0504 21.7735 14.3757C22.8361 14.882 23.3397 14.9957 24.4954 14.9906C26.202 14.9829 27.388 14.5175 28.5457 13.4015C28.9284 13.0326 29.2268 12.6906 29.209 12.6414C29.1911 12.5922 28.8451 12.2991 28.4402 11.9902L27.704 11.4284L27.2082 11.8992C26.0755 12.9749 24.46 13.2795 22.935 12.7052C21.9717 12.3424 20.9902 11.1491 20.7297 10.0242C20.5999 9.46347 20.6195 8.41385 20.7707 7.83614C21.1736 6.29589 22.4321 5.15341 23.9636 4.93748C24.71 4.83219 25.7192 4.9651 26.3649 5.25361L26.874 5.48102L26.8982 6.47359L26.9226 7.46607L27.8978 7.47703L28.8731 7.48791V6.00669V4.52538L28.5046 4.25353C27.9665 3.85654 26.9943 3.4107 26.2569 3.22299C25.4743 3.02371 24.2362 2.94147 23.5739 3.04469ZM5.15672 3.29505C5.13695 3.31481 5.12074 3.7711 5.12074 4.30911V5.28718H6.14747H7.17419L8.89823 10.077L10.6224 14.8668H11.5797H12.5371L14.3249 10.0986L16.1125 5.33033L17.0748 5.30591L18.0372 5.28149V4.29185V3.30221H16.3901C15.4842 3.30221 14.7138 3.29255 14.678 3.28064C14.6422 3.26873 14.1357 4.63775 13.5523 6.32282C12.969 8.00788 12.3104 9.90335 12.0888 10.5351L11.6859 11.6835L11.0256 9.75612C10.6625 8.69598 10.0149 6.81164 9.58661 5.56862L8.80799 3.30869L7.0003 3.28383C6.00608 3.2702 5.17648 3.27529 5.15672 3.29505ZM12.753 17.2953C11.7623 17.4587 10.7121 18.1116 10.093 18.9489L9.71517 19.4599L9.71465 19.0836C9.71439 18.8766 9.68908 18.3869 9.65848 17.9953L9.60282 17.2833H7.79522H5.98762V18.1895V19.0957H6.94118H7.89474V22.9361V26.7766H6.94118H5.98762V27.726V28.6753H10.4087H14.8297V27.726V26.7766H12.4025H9.97523V24.3758C9.97523 21.782 10.0217 21.4333 10.4682 20.6732C10.942 19.8669 12.0995 19.0957 12.836 19.0957H13.0897L13.1145 19.9371L13.1393 20.7786L14.1146 20.803L15.0898 20.8274V19.0122V17.197L14.1579 17.2071C13.6453 17.2126 13.0131 17.2523 12.753 17.2953ZM17.1703 18.2758V19.2683H18.0372H18.904L18.9058 22.0084C18.9081 25.6059 19.0147 26.2951 19.7302 27.3376C20.3718 28.2722 21.2643 28.7827 22.5664 28.9597C24.1079 29.1693 25.4153 28.5593 26.408 27.1671L26.5869 26.9163L26.6996 27.7958L26.8121 28.6753H28.4061H30V27.726V26.7766H29.2749H28.5499L28.4948 26.3762C28.4644 26.156 28.4396 24.02 28.4396 21.6295V17.2833H26.3591H24.2786V18.2758V19.2683H25.28H26.2815L26.2553 22.0084L26.2291 24.7485L26.0036 25.2271C25.4289 26.447 24.1705 27.2328 23.0325 27.0826C22.1905 26.9713 21.7166 26.6198 21.34 25.8273L21.1145 25.3526L21.0889 21.318L21.0632 17.2833H19.1168H17.1703V18.2758ZM2 27.726V28.7616H3.04025H4.0805V27.726V26.6903H3.04025H2V27.726Z" fill="currentColor"/>
</svg>
