<svg width="32" height="32" viewBox="0 0 32 32" fill="none" xmlns="http://www.w3.org/2000/svg">
<path d="M28.2742 9.4375C28.0339 8.06299 26.8887 7.06201 25.5597 6.74951C23.571 6.3125 19.8903 6 15.9081 6C11.9282 6 8.18869 6.3125 6.19757 6.74951C4.87094 7.06201 3.7234 7.99951 3.48305 9.4375C3.24035 11 3 13.1875 3 16C3 18.8125 3.24035 21 3.54196 22.5625C3.78467 23.937 4.92985 24.938 6.25648 25.2505C8.36777 25.6875 11.9871 26 15.9694 26C19.9516 26 23.571 25.6875 25.6823 25.2505C27.0089 24.938 28.1541 24.0005 28.3968 22.5625C28.6371 21 28.9387 18.749 29 16C28.8775 13.1875 28.5759 11 28.2742 9.4375ZM12.6516 20.375V11.625L20.0105 16L12.6516 20.375Z" fill="currentColor"/>
</svg>
